# xmcd
#
# Track frame offsets: 
#        150
#        20711
#        52527
#        90057
#        124361
#        150784
#        172320
#        191842
#        213967
#        256384
#
# Disc length: 3707 seconds
#
# Revision: 1
# Processed by: cddbd v1.5.2PL0 Copyright (c) Steve Scherf et al.
# Submitted via: ExactAudioCopy v0.99pb4
#
DISCID=7a0e790a
DTITLE=Danny Gatton - Live In 1977 The Humbler Stakes His Claim
DYEAR=1977
DGENRE=Blues
TTITLE0=Sweet Georgia Brown
TTITLE1=Canadian Sunset
TTITLE2=Nit Pickin`
TTITLE3=Walkin' With Danny
TTITLE4=Harlem Nocturne
TTITLE5=Soul Sauce
TTITLE6=Danny's Blues
TTITLE7=Fingers On Fire
TTITLE8=Rumble - Harlem Nocturne
TTITLE9=Sweet Georgia Brown
EXTD=YEAR: 1977
EXTT0=
EXTT1=
EXTT2=
EXTT3=
EXTT4=
EXTT5=
EXTT6=
EXTT7=
EXTT8=
EXTT9=
PLAYORDER=
